{
	"asset":{
		"version":"2.0",
		"generator":"Created using the official Cinema 4D glTF Exporter 1.000x284978"
	},
	"scenes":[{
		"nodes":[0,
		1]
	}],
	"nodes":[{
		"name":"Camera",
		"translation":[548.4979248046875,
		204.19100952148438,
		679.7626342773438],
		"rotation":[0.010261056013405323,
		-0.3433648645877838,
		-0.003751615062355995,
		-0.9391385316848755],
		"scale":[1.0,
		1.0,
		1.0],
		"camera":0
	},
	{
		"name":"Male T-Shirt",
		"translation":[0.0,
		41.127159118652347,
		0.0],
		"rotation":[0.0,
		0.0,
		0.0,
		-1.0],
		"scale":[1.0,
		1.0,
		1.0],
		"children":[2]
	},
	{
		"name":"T-Shirt",
		"translation":[-3.258868932723999,
		33.35987091064453,
		-0.05688376724720001],
		"rotation":[0.0,
		0.0,
		0.0,
		-1.0],
		"scale":[1.0,
		1.0,
		1.0],
		"mesh":0
	}],
	"meshes":[{
		"name":"T-Shirt",
		"primitives":[{
			"attributes":{
				"POSITION":1,
				"NORMAL":2,
				"TEXCOORD_0":3
			},
			"indices":0,
			"material":0
		}]
	}],
	"cameras":[{
		"type":"perspective",
		"perspective":{
			"znear":0.009999999776482582,
			"zfar":10000000000.0,
			"aspectRatio":1.0,
			"yfov":0.2651030719280243
		}
	}],
	"accessors":[{
		"bufferView":0,
		"type":"SCALAR",
		"componentType":5123,
		"count":38712,
		"byteOffset":0,
		"min":[0],
		"max":[6901]
	},
	{
		"bufferView":1,
		"type":"VEC3",
		"componentType":5126,
		"count":6902,
		"byteOffset":0,
		"min":[-62.68290328979492,
		-7.033580303192139,
		-36.4670524597168],
		"max":[75.53817749023438,
		146.37057495117188,
		31.008644104003908]
	},
	{
		"bufferView":1,
		"type":"VEC3",
		"componentType":5126,
		"count":6902,
		"byteOffset":12,
		"min":[-0.999956488609314,
		-0.9914015531539917,
		-0.999982476234436],
		"max":[0.9999926090240479,
		0.9999344348907471,
		0.9999620318412781]
	},
	{
		"bufferView":1,
		"type":"VEC2",
		"componentType":5126,
		"count":6902,
		"byteOffset":24,
		"min":[0.000030517578125,
		0.000030517578125],
		"max":[1.0,
		0.9542388916015625]
	}],
	"bufferViews":[{
		"buffer":0,
		"byteOffset":0,
		"byteLength":77424,
		"target":34963
	},
	{
		"buffer":0,
		"byteOffset":77424,
		"byteLength":220864,
		"target":34962,
		"byteStride":32
	}],
	"buffers":[{
		"uri":"data:application/octet-stream;base64,",
		"byteLength":298288
	}],
	"materials":[{
		"pbrMetallicRoughness":{
			"baseColorFactor":[0.8,
			0.8,
			0.8,
			1.0],
			"metallicFactor":0.0,
			"roughnessFactor":0.49
		},
		"emissiveFactor":[0.0,
		0.0,
		0.0],
		"alphaMode":"OPAQUE",
		"doubleSided":false,
		"name":"FCB_home-Shirt"
	}]
}